{"accessors":[{"bufferView":0,"byteOffset":0,"componentType":5126,"count":4,"max":[-3.0,3.0,-1.75],"min":[-3.0,-3.0,-2.25],"type":"VEC3"},{"bufferView":0,"byteOffset":48,"componentType":5126,"count":4,"max":[3.0,3.0,-1.75],"min":[3.0,-3.0,-2.25],"type":"VEC3"},{"bufferView":0,"byteOffset":96,"componentType":5126,"count":4,"max":[3.0,-3.0,-1.75],"min":[-3.0,-3.0,-2.25],"type":"VEC3"},{"bufferView":0,"byteOffset":144,"componentType":5126,"count":4,"max":[3.0,3.0,-1.75],"min":[-3.0,3.0,-2.25],"type":"VEC3"},{"bufferView":0,"byteOffset":192,"componentType":5126,"count":4,"max":[3.0,3.0,-2.25],"min":[-3.0,-3.0,-2.25],"type":"VEC3"},{"bufferView":0,"byteOffset":240,"componentType":5126,"count":4,"max":[3.0,3.0,-1.75],"min":[-3.0,-3.0,-1.75],"type":"VEC3"},{"bufferView":0,"byteOffset":288,"componentType":5126,"count":4,"max":[1.6,0.5,0.0],"min":[1.6,-0.5,-2.0],"type":"VEC3"},{"bufferView":0,"byteOffset":336,"componentType":5126,"count":4,"max":[2.0,0.5,0.0],"min":[2.0,-0.5,-2.0],"type":"VEC3"},{"bufferView":0,"byteOffset":384,"componentType":5126,"count":4,"max":[2.0,-0.5,0.0],"min":[1.6,-0.5,-2.0],"type":"VEC3"},{"bufferView":0,"byteOffset":432,"componentType":5126,"count":4,"max":[2.0,0.5,0.0],"min":[1.6,0.5,-2.0],"type":"VEC3"},{"bufferView":0,"byteOffset":480,"componentType":5126,"count":4,"max":[2.0,0.5,-2.0],"min":[1.6,-0.5,-2.0],"type":"VEC3"},{"bufferView":0,"byteOffset":528,"componentType":5126,"count":4,"max":[2.0,0.5,0.0],"min":[1.6,-0.5,0.0],"type":"VEC3"},{"bufferView":0,"byteOffset":576,"componentType":5126,"count":4,"max":[-2.0,0.5,0.0],"min":[-2.0,-0.5,-2.0],"type":"VEC3"},{"bufferView":0,"byteOffset":624,"componentType":5126,"count":4,"max":[-1.6,0.5,0.0],"min":[-1.6,-0.5,-2.0],"type":"VEC3"},{"bufferView":0,"byteOffset":672,"componentType":5126,"count":4,"max":[-1.6,-0.5,0.0],"min":[-2.0,-0.5,-2.0],"type":"VEC3"},{"bufferView":0,"byteOffset":720,"componentType":5126,"count":4,"max":[-1.6,0.5,0.0],"min":[-2.0,0.5,-2.0],"type":"VEC3"},{"bufferView":0,"byteOffset":768,"componentType":5126,"count":4,"max":[-1.6,0.5,-2.0],"min":[-2.0,-0.5,-2.0],"type":"VEC3"},{"bufferView":0,"byteOffset":816,"componentType":5126,"count":4,"max":[-1.6,0.5,0.0],"min":[-2.0,-0.5,0.0],"type":"VEC3"},{"bufferView":0,"byteOffset":864,"componentType":5126,"count":254,"max":[1.7,1.6994716094013875,0.9],"min":[-1.7,-1.699471609401388,0.10000000000000009],"type":"VEC3"},{"bufferView":0,"byteOffset":3912,"componentType":5126,"count":2159,"max":[1.7,1.6994716094013875,1.0],"min":[-1.7,-1.699471609401388,0.9],"type":"VEC3"},{"bufferView":0,"byteOffset":29820,"componentType":5126,"count":252,"max":[1.8499999999999999,1.84942498670151,0.10000000000000009],"min":[-1.8499999999999999,-1.8494249867015102,0.1],"type":"VEC3"},{"bufferView":0,"byteOffset":32844,"componentType":5126,"count":252,"max":[1.5999999999999999,1.599502691201306,1.0],"min":[-1.5999999999999999,-1.5995026912013062,1.0],"type":"VEC3"},{"bufferView":0,"byteOffset":35868,"componentType":5126,"count":254,"max":[1.8499999999999999,1.84942498670151,0.1],"min":[-1.8499999999999999,-1.8494249867015102,-0.1],"type":"VEC3"},{"bufferView":0,"byteOffset":38916,"componentType":5126,"count":2159,"max":[1.1,1.099658100200898,1.0],"min":[-1.1,-1.0996581002008983,0.9],"type":"VEC3"},{"bufferView":0,"byteOffset":64824,"componentType":5126,"count":252,"max":[1.8499999999999999,1.84942498670151,-0.09999999999999998],"min":[-1.8499999999999999,-1.8494249867015102,-0.1],"type":"VEC3"},{"bufferView":0,"byteOffset":67848,"componentType":5126,"count":254,"max":[1.0,0.9996891820008162,0.9],"min":[-1.0,-0.9996891820008165,0.09999999999999998],"type":"VEC3"},{"bufferView":0,"byteOffset":70896,"componentType":5126,"count":254,"max":[1.7,1.6994716094013875,-0.09999999999999998],"min":[-1.7,-1.699471609401388,-1.0],"type":"VEC3"},{"bufferView":0,"byteOffset":73944,"componentType":5126,"count":126,"max":[1.0,0.9996891820008162,0.09999999999999998],"min":[-1.0,-0.9996891820008165,0.09999999999999998],"type":"VEC3"},{"bufferView":0,"byteOffset":75456,"componentType":5126,"count":252,"max":[1.7,1.6994716094013875,-1.0],"min":[-1.7,-1.699471609401388,-1.0],"type":"VEC3"},{"bufferView":0,"byteOffset":78480,"componentType":5126,"count":254,"max":[1.0,0.9996891820008165,-0.10000000000000009],"min":[-1.0,-0.9996891820008165,-1.0],"type":"VEC3"},{"bufferView":0,"byteOffset":81528,"componentType":5126,"count":126,"max":[1.0,0.9996891820008162,-0.10000000000000009],"min":[-1.0,-0.9996891820008165,-0.10000000000000009],"type":"VEC3"},{"bufferView":1,"byteOffset":0,"componentType":5126,"count":4,"type":"VEC3"},{"bufferView":1,"byteOffset":48,"componentType":5126,"count":4,"type":"VEC3"},{"bufferView":1,"byteOffset":96,"componentType":5126,"count":4,"type":"VEC3"},{"bufferView":1,"byteOffset":144,"componentType":5126,"count":4,"type":"VEC3"},{"bufferView":1,"byteOffset":192,"componentType":5126,"count":4,"type":"VEC3"},{"bufferView":1,"byteOffset":240,"componentType":5126,"count":4,"type":"VEC3"},{"bufferView":1,"byteOffset":288,"componentType":5126,"count":4,"type":"VEC3"},{"bufferView":1,"byteOffset":336,"componentType":5126,"count":4,"type":"VEC3"},{"bufferView":1,"byteOffset":384,"componentType":5126,"count":4,"type":"VEC3"},{"bufferView":1,"byteOffset":432,"componentType":5126,"count":4,"type":"VEC3"},{"bufferView":1,"byteOffset":480,"componentType":5126,"count":4,"type":"VEC3"},{"bufferView":1,"byteOffset":528,"componentType":5126,"count":4,"type":"VEC3"},{"bufferView":1,"byteOffset":576,"componentType":5126,"count":4,"type":"VEC3"},{"bufferView":1,"byteOffset":624,"componentType":5126,"count":4,"type":"VEC3"},{"bufferView":1,"byteOffset":672,"componentType":5126,"count":4,"type":"VEC3"},{"bufferView":1,"byteOffset":720,"componentType":5126,"count":4,"type":"VEC3"},{"bufferView":1,"byteOffset":768,"componentType":5126,"count":4,"type":"VEC3"},{"bufferView":1,"byteOffset":816,"componentType":5126,"count":4,"type":"VEC3"},{"bufferView":1,"byteOffset":864,"componentType":5126,"count":254,"type":"VEC3"},{"bufferView":1,"byteOffset":3912,"componentType":5126,"count":2159,"type":"VEC3"},{"bufferView":1,"byteOffset":29820,"componentType":5126,"count":252,"type":"VEC3"},{"bufferView":1,"byteOffset":32844,"componentType":5126,"count":252,"type":"VEC3"},{"bufferView":1,"byteOffset":35868,"componentType":5126,"count":254,"type":"VEC3"},{"bufferView":1,"byteOffset":38916,"componentType":5126,"count":2159,"type":"VEC3"},{"bufferView":1,"byteOffset":64824,"componentType":5126,"count":252,"type":"VEC3"},{"bufferView":1,"byteOffset":67848,"componentType":5126,"count":254,"type":"VEC3"},{"bufferView":1,"byteOffset":70896,"componentType":5126,"count":254,"type":"VEC3"},{"bufferView":1,"byteOffset":73944,"componentType":5126,"count":126,"type":"VEC3"},{"bufferView":1,"byteOffset":75456,"componentType":5126,"count":252,"type":"VEC3"},{"bufferView":1,"byteOffset":78480,"componentType":5126,"count":254,"type":"VEC3"},{"bufferView":1,"byteOffset":81528,"componentType":5126,"count":126,"type":"VEC3"},{"bufferView":2,"byteOffset":0,"componentType":5123,"count":6,"type":"SCALAR"},{"bufferView":2,"byteOffset":12,"componentType":5123,"count":6,"type":"SCALAR"},{"bufferView":2,"byteOffset":24,"componentType":5123,"count":6,"type":"SCALAR"},{"bufferView":2,"byteOffset":36,"componentType":5123,"count":6,"type":"SCALAR"},{"bufferView":2,"byteOffset":48,"componentType":5123,"count":6,"type":"SCALAR"},{"bufferView":2,"byteOffset":60,"componentType":5123,"count":6,"type":"SCALAR"},{"bufferView":2,"byteOffset":72,"componentType":5123,"count":6,"type":"SCALAR"},{"bufferView":2,"byteOffset":84,"componentType":5123,"count":6,"type":"SCALAR"},{"bufferView":2,"byteOffset":96,"componentType":5123,"count":6,"type":"SCALAR"},{"bufferView":2,"byteOffset":108,"componentType":5123,"count":6,"type":"SCALAR"},{"bufferView":2,"byteOffset":120,"componentType":5123,"count":6,"type":"SCALAR"},{"bufferView":2,"byteOffset":132,"componentType":5123,"count":6,"type":"SCALAR"},{"bufferView":2,"byteOffset":144,"componentType":5123,"count":6,"type":"SCALAR"},{"bufferView":2,"byteOffset":156,"componentType":5123,"count":6,"type":"SCALAR"},{"bufferView":2,"byteOffset":168,"componentType":5123,"count":6,"type":"SCALAR"},{"bufferView":2,"byteOffset":180,"componentType":5123,"count":6,"type":"SCALAR"},{"bufferView":2,"byteOffset":192,"componentType":5123,"count":6,"type":"SCALAR"},{"bufferView":2,"byteOffset":204,"componentType":5123,"count":6,"type":"SCALAR"},{"bufferView":2,"byteOffset":216,"componentType":5123,"count":756,"type":"SCALAR"},{"bufferView":2,"byteOffset":1728,"componentType":5123,"count":12096,"type":"SCALAR"},{"bufferView":2,"byteOffset":25920,"componentType":5123,"count":756,"type":"SCALAR"},{"bufferView":2,"byteOffset":27432,"componentType":5123,"count":756,"type":"SCALAR"},{"bufferView":2,"byteOffset":28944,"componentType":5123,"count":756,"type":"SCALAR"},{"bufferView":2,"byteOffset":30456,"componentType":5123,"count":12096,"type":"SCALAR"},{"bufferView":2,"byteOffset":54648,"componentType":5123,"count":756,"type":"SCALAR"},{"bufferView":2,"byteOffset":56160,"componentType":5123,"count":756,"type":"SCALAR"},{"bufferView":2,"byteOffset":57672,"componentType":5123,"count":756,"type":"SCALAR"},{"bufferView":2,"byteOffset":59184,"componentType":5123,"count":372,"type":"SCALAR"},{"bufferView":2,"byteOffset":59928,"componentType":5123,"count":756,"type":"SCALAR"},{"bufferView":2,"byteOffset":61440,"componentType":5123,"count":756,"type":"SCALAR"},{"bufferView":2,"byteOffset":62952,"componentType":5123,"count":372,"type":"SCALAR"}],"asset":{"generator":"Open CASCADE Technology 7.8 [dev.opencascade.org]","version":"2.0"},"bufferViews":[{"buffer":0,"byteLength":83040,"byteOffset":0,"byteStride":12,"target":34962},{"buffer":0,"byteLength":83040,"byteOffset":83040,"byteStride":12,"target":34962},{"buffer":0,"byteLength":63696,"byteOffset":166080,"target":34963}],"buffers":[{"byteLength":229776,"uri":"reactor_test_stand.bin"}],"materials":[{"name":"mat_0","pbrMetallicRoughness":{"baseColorFactor":[0.03310476616024971,0.03310476616024971,0.03310476616024971,1.0]},"doubleSided":true},{"name":"mat_1","pbrMetallicRoughness":{"baseColorFactor":[0.6038273572921753,0.6038273572921753,0.010022825561463833,1.0]},"doubleSided":true},{"name":"mat_2","pbrMetallicRoughness":{"baseColorFactor":[0.4479884207248688,0.4479884207248688,0.4479884207248688,1.0]},"doubleSided":true}],"meshes":[{"name":"Concrete_Pad","primitives":[{"attributes":{"NORMAL":31,"POSITION":0},"indices":62,"material":0,"mode":4},{"attributes":{"NORMAL":32,"POSITION":1},"indices":63,"material":0,"mode":4},{"attributes":{"NORMAL":33,"POSITION":2},"indices":64,"material":0,"mode":4},{"attributes":{"NORMAL":34,"POSITION":3},"indices":65,"material":0,"mode":4},{"attributes":{"NORMAL":35,"POSITION":4},"indices":66,"material":0,"mode":4},{"attributes":{"NORMAL":36,"POSITION":5},"indices":67,"material":0,"mode":4}]},{"name":"Strut_Left","primitives":[{"attributes":{"NORMAL":37,"POSITION":6},"indices":68,"material":1,"mode":4},{"attributes":{"NORMAL":38,"POSITION":7},"indices":69,"material":1,"mode":4},{"attributes":{"NORMAL":39,"POSITION":8},"indices":70,"material":1,"mode":4},{"attributes":{"NORMAL":40,"POSITION":9},"indices":71,"material":1,"mode":4},{"attributes":{"NORMAL":41,"POSITION":10},"indices":72,"material":1,"mode":4},{"attributes":{"NORMAL":42,"POSITION":11},"indices":73,"material":1,"mode":4}]},{"name":"Strut_Right","primitives":[{"attributes":{"NORMAL":43,"POSITION":12},"indices":74,"material":1,"mode":4},{"attributes":{"NORMAL":44,"POSITION":13},"indices":75,"material":1,"mode":4},{"attributes":{"NORMAL":45,"POSITION":14},"indices":76,"material":1,"mode":4},{"attributes":{"NORMAL":46,"POSITION":15},"indices":77,"material":1,"mode":4},{"attributes":{"NORMAL":47,"POSITION":16},"indices":78,"material":1,"mode":4},{"attributes":{"NORMAL":48,"POSITION":17},"indices":79,"material":1,"mode":4}]},{"name":"Orbitron_Reactor","primitives":[{"attributes":{"NORMAL":49,"POSITION":18},"indices":80,"material":2,"mode":4},{"attributes":{"NORMAL":50,"POSITION":19},"indices":81,"material":2,"mode":4},{"attributes":{"NORMAL":51,"POSITION":20},"indices":82,"material":2,"mode":4},{"attributes":{"NORMAL":52,"POSITION":21},"indices":83,"material":2,"mode":4},{"attributes":{"NORMAL":53,"POSITION":22},"indices":84,"material":2,"mode":4},{"attributes":{"NORMAL":54,"POSITION":23},"indices":85,"material":2,"mode":4},{"attributes":{"NORMAL":55,"POSITION":24},"indices":86,"material":2,"mode":4},{"attributes":{"NORMAL":56,"POSITION":25},"indices":87,"material":2,"mode":4},{"attributes":{"NORMAL":57,"POSITION":26},"indices":88,"material":2,"mode":4},{"attributes":{"NORMAL":58,"POSITION":27},"indices":89,"material":2,"mode":4},{"attributes":{"NORMAL":59,"POSITION":28},"indices":90,"material":2,"mode":4},{"attributes":{"NORMAL":60,"POSITION":29},"indices":91,"material":2,"mode":4},{"attributes":{"NORMAL":61,"POSITION":30},"indices":92,"material":2,"mode":4}]}],"nodes":[{"children":[1,2,3,4],"rotation":[-0.7071067811865475,0.0,0.0,0.7071067811865475],"name":"Reactor_Test_Stand"},{"mesh":0,"name":"Concrete_Pad"},{"mesh":1,"name":"Strut_Left"},{"mesh":2,"name":"Strut_Right"},{"mesh":3,"name":"Orbitron_Reactor"}],"scene":0,"scenes":[{"nodes":[0]}]}