{"accessors":[{"bufferView":0,"byteOffset":0,"componentType":5126,"count":4,"max":[-0.5,0.5,-0.95],"min":[-0.5,-0.5,-1.05],"type":"VEC3"},{"bufferView":0,"byteOffset":48,"componentType":5126,"count":4,"max":[0.5,-0.5,-0.95],"min":[-0.5,-0.5,-1.05],"type":"VEC3"},{"bufferView":0,"byteOffset":96,"componentType":5126,"count":4,"max":[0.5,0.5,-0.95],"min":[-0.5,-0.5,-0.95],"type":"VEC3"},{"bufferView":0,"byteOffset":144,"componentType":5126,"count":4,"max":[0.5,0.5,-0.95],"min":[-0.5,0.5,-1.05],"type":"VEC3"},{"bufferView":0,"byteOffset":192,"componentType":5126,"count":20,"max":[0.5,0.5,-1.05],"min":[-0.5,-0.5,-1.05],"type":"VEC3"},{"bufferView":0,"byteOffset":432,"componentType":5126,"count":4,"max":[0.5,0.5,-0.95],"min":[0.5,-0.5,-1.05],"type":"VEC3"},{"bufferView":0,"byteOffset":480,"componentType":5126,"count":4,"max":[-0.35000000000000003,-0.45,-1.05],"min":[-0.45,-0.45,-2.0],"type":"VEC3"},{"bufferView":0,"byteOffset":528,"componentType":5126,"count":4,"max":[-0.35000000000000003,-0.35000000000000003,-1.05],"min":[-0.35000000000000003,-0.45,-2.0],"type":"VEC3"},{"bufferView":0,"byteOffset":576,"componentType":5126,"count":4,"max":[-0.35000000000000003,-0.35000000000000003,-1.05],"min":[-0.45,-0.35000000000000003,-2.0],"type":"VEC3"},{"bufferView":0,"byteOffset":624,"componentType":5126,"count":4,"max":[-0.45,-0.35000000000000003,-1.05],"min":[-0.45,-0.45,-2.0],"type":"VEC3"},{"bufferView":0,"byteOffset":672,"componentType":5126,"count":4,"max":[0.45,-0.45,-1.05],"min":[0.35000000000000003,-0.45,-2.0],"type":"VEC3"},{"bufferView":0,"byteOffset":720,"componentType":5126,"count":4,"max":[0.45,-0.35000000000000003,-1.05],"min":[0.45,-0.45,-2.0],"type":"VEC3"},{"bufferView":0,"byteOffset":768,"componentType":5126,"count":4,"max":[0.35000000000000003,-0.35000000000000003,-1.05],"min":[0.35000000000000003,-0.45,-2.0],"type":"VEC3"},{"bufferView":0,"byteOffset":816,"componentType":5126,"count":4,"max":[0.45,-0.35000000000000003,-1.05],"min":[0.35000000000000003,-0.35000000000000003,-2.0],"type":"VEC3"},{"bufferView":0,"byteOffset":864,"componentType":5126,"count":4,"max":[-0.35000000000000003,0.35000000000000003,-1.05],"min":[-0.45,0.35000000000000003,-2.0],"type":"VEC3"},{"bufferView":0,"byteOffset":912,"componentType":5126,"count":4,"max":[-0.35000000000000003,0.45,-1.05],"min":[-0.35000000000000003,0.35000000000000003,-2.0],"type":"VEC3"},{"bufferView":0,"byteOffset":960,"componentType":5126,"count":4,"max":[-0.45,0.45,-1.05],"min":[-0.45,0.35000000000000003,-2.0],"type":"VEC3"},{"bufferView":0,"byteOffset":1008,"componentType":5126,"count":4,"max":[-0.35000000000000003,0.45,-1.05],"min":[-0.45,0.45,-2.0],"type":"VEC3"},{"bufferView":0,"byteOffset":1056,"componentType":5126,"count":4,"max":[0.45,0.35000000000000003,-1.05],"min":[0.35000000000000003,0.35000000000000003,-2.0],"type":"VEC3"},{"bufferView":0,"byteOffset":1104,"componentType":5126,"count":4,"max":[0.45,0.45,-1.05],"min":[0.45,0.35000000000000003,-2.0],"type":"VEC3"},{"bufferView":0,"byteOffset":1152,"componentType":5126,"count":4,"max":[0.35000000000000003,0.45,-1.05],"min":[0.35000000000000003,0.35000000000000003,-2.0],"type":"VEC3"},{"bufferView":0,"byteOffset":1200,"componentType":5126,"count":4,"max":[0.45,0.45,-1.05],"min":[0.35000000000000003,0.45,-2.0],"type":"VEC3"},{"bufferView":0,"byteOffset":1248,"componentType":5126,"count":4,"max":[-0.35000000000000003,-0.35000000000000003,-2.0],"min":[-0.45,-0.45,-2.0],"type":"VEC3"},{"bufferView":0,"byteOffset":1296,"componentType":5126,"count":4,"max":[0.45,-0.35000000000000003,-2.0],"min":[0.35000000000000003,-0.45,-2.0],"type":"VEC3"},{"bufferView":0,"byteOffset":1344,"componentType":5126,"count":4,"max":[-0.35000000000000003,0.45,-2.0],"min":[-0.45,0.35000000000000003,-2.0],"type":"VEC3"},{"bufferView":0,"byteOffset":1392,"componentType":5126,"count":4,"max":[0.45,0.45,-2.0],"min":[0.35000000000000003,0.35000000000000003,-2.0],"type":"VEC3"},{"bufferView":0,"byteOffset":1440,"componentType":5126,"count":4,"max":[-0.1,0.7,-0.44999999999999996],"min":[-0.1,0.5,-0.95],"type":"VEC3"},{"bufferView":0,"byteOffset":1488,"componentType":5126,"count":4,"max":[0.1,0.7,-0.44999999999999996],"min":[0.1,0.5,-0.95],"type":"VEC3"},{"bufferView":0,"byteOffset":1536,"componentType":5126,"count":4,"max":[0.1,0.5,-0.44999999999999996],"min":[-0.1,0.5,-0.95],"type":"VEC3"},{"bufferView":0,"byteOffset":1584,"componentType":5126,"count":4,"max":[0.1,0.7,-0.44999999999999996],"min":[-0.1,0.7,-0.95],"type":"VEC3"},{"bufferView":0,"byteOffset":1632,"componentType":5126,"count":4,"max":[0.1,0.7,-0.95],"min":[-0.1,0.5,-0.95],"type":"VEC3"},{"bufferView":0,"byteOffset":1680,"componentType":5126,"count":4,"max":[0.1,0.7,-0.44999999999999996],"min":[-0.1,0.5,-0.44999999999999996],"type":"VEC3"},{"bufferView":0,"byteOffset":1728,"componentType":5126,"count":4,"max":[-0.1,-0.5,-0.44999999999999996],"min":[-0.1,-0.7,-0.95],"type":"VEC3"},{"bufferView":0,"byteOffset":1776,"componentType":5126,"count":4,"max":[0.1,-0.5,-0.44999999999999996],"min":[0.1,-0.7,-0.95],"type":"VEC3"},{"bufferView":0,"byteOffset":1824,"componentType":5126,"count":4,"max":[0.1,-0.7,-0.44999999999999996],"min":[-0.1,-0.7,-0.95],"type":"VEC3"},{"bufferView":0,"byteOffset":1872,"componentType":5126,"count":4,"max":[0.1,-0.5,-0.44999999999999996],"min":[-0.1,-0.5,-0.95],"type":"VEC3"},{"bufferView":0,"byteOffset":1920,"componentType":5126,"count":4,"max":[0.1,-0.5,-0.95],"min":[-0.1,-0.7,-0.95],"type":"VEC3"},{"bufferView":0,"byteOffset":1968,"componentType":5126,"count":4,"max":[0.1,-0.5,-0.44999999999999996],"min":[-0.1,-0.7,-0.44999999999999996],"type":"VEC3"},{"bufferView":0,"byteOffset":2016,"componentType":5126,"count":10,"max":[0.005,0.005,1.2],"min":[-0.005,-0.005,1.075],"type":"VEC3"},{"bufferView":0,"byteOffset":2136,"componentType":5126,"count":23,"max":[0.03,0.029897534790200093,1.075],"min":[-0.02959083910208167,-0.029897534790200093,1.075],"type":"VEC3"},{"bufferView":0,"byteOffset":2412,"componentType":5126,"count":4,"max":[0.005,0.005,1.2],"min":[-0.005,-0.005,1.2],"type":"VEC3"},{"bufferView":0,"byteOffset":2460,"componentType":5126,"count":40,"max":[0.03,0.029897534790200093,1.075],"min":[-0.02959083910208167,-0.029897534790200093,0.925],"type":"VEC3"},{"bufferView":0,"byteOffset":2940,"componentType":5126,"count":23,"max":[0.03,0.029897534790200093,0.925],"min":[-0.02959083910208167,-0.029897534790200093,0.925],"type":"VEC3"},{"bufferView":0,"byteOffset":3216,"componentType":5126,"count":10,"max":[0.005,0.005,0.925],"min":[-0.005,-0.005,-0.925],"type":"VEC3"},{"bufferView":0,"byteOffset":3336,"componentType":5126,"count":23,"max":[0.03,0.029897534790200093,-0.925],"min":[-0.02959083910208167,-0.029897534790200093,-0.925],"type":"VEC3"},{"bufferView":0,"byteOffset":3612,"componentType":5126,"count":40,"max":[0.03,0.029897534790200093,-0.925],"min":[-0.02959083910208167,-0.029897534790200093,-1.075],"type":"VEC3"},{"bufferView":0,"byteOffset":4092,"componentType":5126,"count":23,"max":[0.03,0.029897534790200093,-1.075],"min":[-0.02959083910208167,-0.029897534790200093,-1.075],"type":"VEC3"},{"bufferView":0,"byteOffset":4368,"componentType":5126,"count":10,"max":[0.005,0.005,-1.075],"min":[-0.005,-0.005,-1.2],"type":"VEC3"},{"bufferView":0,"byteOffset":4488,"componentType":5126,"count":4,"max":[0.005,0.005,-1.2],"min":[-0.005,-0.005,-1.2],"type":"VEC3"},{"bufferView":0,"byteOffset":4536,"componentType":5126,"count":66,"max":[0.05,0.05,1.0],"min":[-0.05,-0.05,-1.0],"type":"VEC3"},{"bufferView":0,"byteOffset":5328,"componentType":5126,"count":61,"max":[0.05,0.05,1.0],"min":[-0.05,-0.05,1.0],"type":"VEC3"},{"bufferView":0,"byteOffset":6060,"componentType":5126,"count":61,"max":[0.05,0.05,-1.0],"min":[-0.05,-0.05,-1.0],"type":"VEC3"},{"bufferView":0,"byteOffset":6792,"componentType":5126,"count":60,"max":[0.04473620807194619,0.04493400362330058,1.0],"min":[-0.045000000000000005,-0.04493400362330058,-1.0],"type":"VEC3"},{"bufferView":1,"byteOffset":0,"componentType":5126,"count":4,"type":"VEC3"},{"bufferView":1,"byteOffset":48,"componentType":5126,"count":4,"type":"VEC3"},{"bufferView":1,"byteOffset":96,"componentType":5126,"count":4,"type":"VEC3"},{"bufferView":1,"byteOffset":144,"componentType":5126,"count":4,"type":"VEC3"},{"bufferView":1,"byteOffset":192,"componentType":5126,"count":20,"type":"VEC3"},{"bufferView":1,"byteOffset":432,"componentType":5126,"count":4,"type":"VEC3"},{"bufferView":1,"byteOffset":480,"componentType":5126,"count":4,"type":"VEC3"},{"bufferView":1,"byteOffset":528,"componentType":5126,"count":4,"type":"VEC3"},{"bufferView":1,"byteOffset":576,"componentType":5126,"count":4,"type":"VEC3"},{"bufferView":1,"byteOffset":624,"componentType":5126,"count":4,"type":"VEC3"},{"bufferView":1,"byteOffset":672,"componentType":5126,"count":4,"type":"VEC3"},{"bufferView":1,"byteOffset":720,"componentType":5126,"count":4,"type":"VEC3"},{"bufferView":1,"byteOffset":768,"componentType":5126,"count":4,"type":"VEC3"},{"bufferView":1,"byteOffset":816,"componentType":5126,"count":4,"type":"VEC3"},{"bufferView":1,"byteOffset":864,"componentType":5126,"count":4,"type":"VEC3"},{"bufferView":1,"byteOffset":912,"componentType":5126,"count":4,"type":"VEC3"},{"bufferView":1,"byteOffset":960,"componentType":5126,"count":4,"type":"VEC3"},{"bufferView":1,"byteOffset":1008,"componentType":5126,"count":4,"type":"VEC3"},{"bufferView":1,"byteOffset":1056,"componentType":5126,"count":4,"type":"VEC3"},{"bufferView":1,"byteOffset":1104,"componentType":5126,"count":4,"type":"VEC3"},{"bufferView":1,"byteOffset":1152,"componentType":5126,"count":4,"type":"VEC3"},{"bufferView":1,"byteOffset":1200,"componentType":5126,"count":4,"type":"VEC3"},{"bufferView":1,"byteOffset":1248,"componentType":5126,"count":4,"type":"VEC3"},{"bufferView":1,"byteOffset":1296,"componentType":5126,"count":4,"type":"VEC3"},{"bufferView":1,"byteOffset":1344,"componentType":5126,"count":4,"type":"VEC3"},{"bufferView":1,"byteOffset":1392,"componentType":5126,"count":4,"type":"VEC3"},{"bufferView":1,"byteOffset":1440,"componentType":5126,"count":4,"type":"VEC3"},{"bufferView":1,"byteOffset":1488,"componentType":5126,"count":4,"type":"VEC3"},{"bufferView":1,"byteOffset":1536,"componentType":5126,"count":4,"type":"VEC3"},{"bufferView":1,"byteOffset":1584,"componentType":5126,"count":4,"type":"VEC3"},{"bufferView":1,"byteOffset":1632,"componentType":5126,"count":4,"type":"VEC3"},{"bufferView":1,"byteOffset":1680,"componentType":5126,"count":4,"type":"VEC3"},{"bufferView":1,"byteOffset":1728,"componentType":5126,"count":4,"type":"VEC3"},{"bufferView":1,"byteOffset":1776,"componentType":5126,"count":4,"type":"VEC3"},{"bufferView":1,"byteOffset":1824,"componentType":5126,"count":4,"type":"VEC3"},{"bufferView":1,"byteOffset":1872,"componentType":5126,"count":4,"type":"VEC3"},{"bufferView":1,"byteOffset":1920,"componentType":5126,"count":4,"type":"VEC3"},{"bufferView":1,"byteOffset":1968,"componentType":5126,"count":4,"type":"VEC3"},{"bufferView":1,"byteOffset":2016,"componentType":5126,"count":10,"type":"VEC3"},{"bufferView":1,"byteOffset":2136,"componentType":5126,"count":23,"type":"VEC3"},{"bufferView":1,"byteOffset":2412,"componentType":5126,"count":4,"type":"VEC3"},{"bufferView":1,"byteOffset":2460,"componentType":5126,"count":40,"type":"VEC3"},{"bufferView":1,"byteOffset":2940,"componentType":5126,"count":23,"type":"VEC3"},{"bufferView":1,"byteOffset":3216,"componentType":5126,"count":10,"type":"VEC3"},{"bufferView":1,"byteOffset":3336,"componentType":5126,"count":23,"type":"VEC3"},{"bufferView":1,"byteOffset":3612,"componentType":5126,"count":40,"type":"VEC3"},{"bufferView":1,"byteOffset":4092,"componentType":5126,"count":23,"type":"VEC3"},{"bufferView":1,"byteOffset":4368,"componentType":5126,"count":10,"type":"VEC3"},{"bufferView":1,"byteOffset":4488,"componentType":5126,"count":4,"type":"VEC3"},{"bufferView":1,"byteOffset":4536,"componentType":5126,"count":66,"type":"VEC3"},{"bufferView":1,"byteOffset":5328,"componentType":5126,"count":61,"type":"VEC3"},{"bufferView":1,"byteOffset":6060,"componentType":5126,"count":61,"type":"VEC3"},{"bufferView":1,"byteOffset":6792,"componentType":5126,"count":60,"type":"VEC3"},{"bufferView":2,"byteOffset":0,"componentType":5123,"count":6,"type":"SCALAR"},{"bufferView":2,"byteOffset":12,"componentType":5123,"count":6,"type":"SCALAR"},{"bufferView":2,"byteOffset":24,"componentType":5123,"count":6,"type":"SCALAR"},{"bufferView":2,"byteOffset":36,"componentType":5123,"count":6,"type":"SCALAR"},{"bufferView":2,"byteOffset":48,"componentType":5123,"count":78,"type":"SCALAR"},{"bufferView":2,"byteOffset":204,"componentType":5123,"count":6,"type":"SCALAR"},{"bufferView":2,"byteOffset":216,"componentType":5123,"count":6,"type":"SCALAR"},{"bufferView":2,"byteOffset":228,"componentType":5123,"count":6,"type":"SCALAR"},{"bufferView":2,"byteOffset":240,"componentType":5123,"count":6,"type":"SCALAR"},{"bufferView":2,"byteOffset":252,"componentType":5123,"count":6,"type":"SCALAR"},{"bufferView":2,"byteOffset":264,"componentType":5123,"count":6,"type":"SCALAR"},{"bufferView":2,"byteOffset":276,"componentType":5123,"count":6,"type":"SCALAR"},{"bufferView":2,"byteOffset":288,"componentType":5123,"count":6,"type":"SCALAR"},{"bufferView":2,"byteOffset":300,"componentType":5123,"count":6,"type":"SCALAR"},{"bufferView":2,"byteOffset":312,"componentType":5123,"count":6,"type":"SCALAR"},{"bufferView":2,"byteOffset":324,"componentType":5123,"count":6,"type":"SCALAR"},{"bufferView":2,"byteOffset":336,"componentType":5123,"count":6,"type":"SCALAR"},{"bufferView":2,"byteOffset":348,"componentType":5123,"count":6,"type":"SCALAR"},{"bufferView":2,"byteOffset":360,"componentType":5123,"count":6,"type":"SCALAR"},{"bufferView":2,"byteOffset":372,"componentType":5123,"count":6,"type":"SCALAR"},{"bufferView":2,"byteOffset":384,"componentType":5123,"count":6,"type":"SCALAR"},{"bufferView":2,"byteOffset":396,"componentType":5123,"count":6,"type":"SCALAR"},{"bufferView":2,"byteOffset":408,"componentType":5123,"count":6,"type":"SCALAR"},{"bufferView":2,"byteOffset":420,"componentType":5123,"count":6,"type":"SCALAR"},{"bufferView":2,"byteOffset":432,"componentType":5123,"count":6,"type":"SCALAR"},{"bufferView":2,"byteOffset":444,"componentType":5123,"count":6,"type":"SCALAR"},{"bufferView":2,"byteOffset":456,"componentType":5123,"count":6,"type":"SCALAR"},{"bufferView":2,"byteOffset":468,"componentType":5123,"count":6,"type":"SCALAR"},{"bufferView":2,"byteOffset":480,"componentType":5123,"count":6,"type":"SCALAR"},{"bufferView":2,"byteOffset":492,"componentType":5123,"count":6,"type":"SCALAR"},{"bufferView":2,"byteOffset":504,"componentType":5123,"count":6,"type":"SCALAR"},{"bufferView":2,"byteOffset":516,"componentType":5123,"count":6,"type":"SCALAR"},{"bufferView":2,"byteOffset":528,"componentType":5123,"count":6,"type":"SCALAR"},{"bufferView":2,"byteOffset":540,"componentType":5123,"count":6,"type":"SCALAR"},{"bufferView":2,"byteOffset":552,"componentType":5123,"count":6,"type":"SCALAR"},{"bufferView":2,"byteOffset":564,"componentType":5123,"count":6,"type":"SCALAR"},{"bufferView":2,"byteOffset":576,"componentType":5123,"count":6,"type":"SCALAR"},{"bufferView":2,"byteOffset":588,"componentType":5123,"count":6,"type":"SCALAR"},{"bufferView":2,"byteOffset":600,"componentType":5123,"count":24,"type":"SCALAR"},{"bufferView":2,"byteOffset":648,"componentType":5123,"count":69,"type":"SCALAR"},{"bufferView":2,"byteOffset":788,"componentType":5123,"count":6,"type":"SCALAR"},{"bufferView":2,"byteOffset":800,"componentType":5123,"count":114,"type":"SCALAR"},{"bufferView":2,"byteOffset":1028,"componentType":5123,"count":69,"type":"SCALAR"},{"bufferView":2,"byteOffset":1168,"componentType":5123,"count":24,"type":"SCALAR"},{"bufferView":2,"byteOffset":1216,"componentType":5123,"count":69,"type":"SCALAR"},{"bufferView":2,"byteOffset":1356,"componentType":5123,"count":114,"type":"SCALAR"},{"bufferView":2,"byteOffset":1584,"componentType":5123,"count":69,"type":"SCALAR"},{"bufferView":2,"byteOffset":1724,"componentType":5123,"count":24,"type":"SCALAR"},{"bufferView":2,"byteOffset":1772,"componentType":5123,"count":6,"type":"SCALAR"},{"bufferView":2,"byteOffset":1784,"componentType":5123,"count":192,"type":"SCALAR"},{"bufferView":2,"byteOffset":2168,"componentType":5123,"count":183,"type":"SCALAR"},{"bufferView":2,"byteOffset":2536,"componentType":5123,"count":183,"type":"SCALAR"},{"bufferView":2,"byteOffset":2904,"componentType":5123,"count":174,"type":"SCALAR"}],"asset":{"generator":"Open CASCADE Technology 7.8 [dev.opencascade.org]","version":"2.0"},"bufferViews":[{"buffer":0,"byteLength":7512,"byteOffset":0,"byteStride":12,"target":34962},{"buffer":0,"byteLength":7512,"byteOffset":7512,"byteStride":12,"target":34962},{"buffer":0,"byteLength":3252,"byteOffset":15024,"target":34963}],"buffers":[{"byteLength":18276,"uri":"single_tube_stand.bin"}],"materials":[{"name":"mat_0","pbrMetallicRoughness":{"baseColorFactor":[0.010022825561463833,0.010022825561463833,0.010022825561463833,1.0]},"doubleSided":true},{"name":"mat_1","pbrMetallicRoughness":{"baseColorFactor":[0.03310476616024971,0.13286831974983215,0.6038273572921753,1.0]},"doubleSided":true},{"name":"mat_2","pbrMetallicRoughness":{"baseColorFactor":[0.6038273572921753,0.6038273572921753,0.6920710802078247,1.0]},"doubleSided":true}],"meshes":[{"name":"Optical_Table","primitives":[{"attributes":{"NORMAL":53,"POSITION":0},"indices":106,"material":0,"mode":4},{"attributes":{"NORMAL":54,"POSITION":1},"indices":107,"material":0,"mode":4},{"attributes":{"NORMAL":55,"POSITION":2},"indices":108,"material":0,"mode":4},{"attributes":{"NORMAL":56,"POSITION":3},"indices":109,"material":0,"mode":4},{"attributes":{"NORMAL":57,"POSITION":4},"indices":110,"material":0,"mode":4},{"attributes":{"NORMAL":58,"POSITION":5},"indices":111,"material":0,"mode":4},{"attributes":{"NORMAL":59,"POSITION":6},"indices":112,"material":0,"mode":4},{"attributes":{"NORMAL":60,"POSITION":7},"indices":113,"material":0,"mode":4},{"attributes":{"NORMAL":61,"POSITION":8},"indices":114,"material":0,"mode":4},{"attributes":{"NORMAL":62,"POSITION":9},"indices":115,"material":0,"mode":4},{"attributes":{"NORMAL":63,"POSITION":10},"indices":116,"material":0,"mode":4},{"attributes":{"NORMAL":64,"POSITION":11},"indices":117,"material":0,"mode":4},{"attributes":{"NORMAL":65,"POSITION":12},"indices":118,"material":0,"mode":4},{"attributes":{"NORMAL":66,"POSITION":13},"indices":119,"material":0,"mode":4},{"attributes":{"NORMAL":67,"POSITION":14},"indices":120,"material":0,"mode":4},{"attributes":{"NORMAL":68,"POSITION":15},"indices":121,"material":0,"mode":4},{"attributes":{"NORMAL":69,"POSITION":16},"indices":122,"material":0,"mode":4},{"attributes":{"NORMAL":70,"POSITION":17},"indices":123,"material":0,"mode":4},{"attributes":{"NORMAL":71,"POSITION":18},"indices":124,"material":0,"mode":4},{"attributes":{"NORMAL":72,"POSITION":19},"indices":125,"material":0,"mode":4},{"attributes":{"NORMAL":73,"POSITION":20},"indices":126,"material":0,"mode":4},{"attributes":{"NORMAL":74,"POSITION":21},"indices":127,"material":0,"mode":4},{"attributes":{"NORMAL":75,"POSITION":22},"indices":128,"material":0,"mode":4},{"attributes":{"NORMAL":76,"POSITION":23},"indices":129,"material":0,"mode":4},{"attributes":{"NORMAL":77,"POSITION":24},"indices":130,"material":0,"mode":4},{"attributes":{"NORMAL":78,"POSITION":25},"indices":131,"material":0,"mode":4}]},{"name":"Mount_Forward","primitives":[{"attributes":{"NORMAL":79,"POSITION":26},"indices":132,"material":1,"mode":4},{"attributes":{"NORMAL":80,"POSITION":27},"indices":133,"material":1,"mode":4},{"attributes":{"NORMAL":81,"POSITION":28},"indices":134,"material":1,"mode":4},{"attributes":{"NORMAL":82,"POSITION":29},"indices":135,"material":1,"mode":4},{"attributes":{"NORMAL":83,"POSITION":30},"indices":136,"material":1,"mode":4},{"attributes":{"NORMAL":84,"POSITION":31},"indices":137,"material":1,"mode":4}]},{"name":"Mount_Aft","primitives":[{"attributes":{"NORMAL":85,"POSITION":32},"indices":138,"material":1,"mode":4},{"attributes":{"NORMAL":86,"POSITION":33},"indices":139,"material":1,"mode":4},{"attributes":{"NORMAL":87,"POSITION":34},"indices":140,"material":1,"mode":4},{"attributes":{"NORMAL":88,"POSITION":35},"indices":141,"material":1,"mode":4},{"attributes":{"NORMAL":89,"POSITION":36},"indices":142,"material":1,"mode":4},{"attributes":{"NORMAL":90,"POSITION":37},"indices":143,"material":1,"mode":4}]},{"name":"Orbitron_3_5_MW_Tube","primitives":[{"attributes":{"NORMAL":91,"POSITION":38},"indices":144,"material":2,"mode":4},{"attributes":{"NORMAL":92,"POSITION":39},"indices":145,"material":2,"mode":4},{"attributes":{"NORMAL":93,"POSITION":40},"indices":146,"material":2,"mode":4},{"attributes":{"NORMAL":94,"POSITION":41},"indices":147,"material":2,"mode":4},{"attributes":{"NORMAL":95,"POSITION":42},"indices":148,"material":2,"mode":4},{"attributes":{"NORMAL":96,"POSITION":43},"indices":149,"material":2,"mode":4},{"attributes":{"NORMAL":97,"POSITION":44},"indices":150,"material":2,"mode":4},{"attributes":{"NORMAL":98,"POSITION":45},"indices":151,"material":2,"mode":4},{"attributes":{"NORMAL":99,"POSITION":46},"indices":152,"material":2,"mode":4},{"attributes":{"NORMAL":100,"POSITION":47},"indices":153,"material":2,"mode":4},{"attributes":{"NORMAL":101,"POSITION":48},"indices":154,"material":2,"mode":4},{"attributes":{"NORMAL":102,"POSITION":49},"indices":155,"material":2,"mode":4},{"attributes":{"NORMAL":103,"POSITION":50},"indices":156,"material":2,"mode":4},{"attributes":{"NORMAL":104,"POSITION":51},"indices":157,"material":2,"mode":4},{"attributes":{"NORMAL":105,"POSITION":52},"indices":158,"material":2,"mode":4}]}],"nodes":[{"children":[1,2,3,4],"rotation":[-0.7071067811865475,0.0,0.0,0.7071067811865475],"name":"Single_Tube_Test_Rig"},{"mesh":0,"name":"Optical_Table"},{"mesh":1,"name":"Mount_Forward"},{"mesh":2,"name":"Mount_Aft"},{"rotation":[0.7071067811865475,0.0,0.0,0.7071067811865475],"translation":[0.0,0.0,-0.45],"mesh":3,"name":"Orbitron_3_5_MW_Tube"}],"scene":0,"scenes":[{"nodes":[0]}]}